<svg width="528" height="528" viewBox="0 0 528 528" fill="none" xmlns="http://www.w3.org/2000/svg">
<g clip-path="url(#clip0_13_2441)">
<circle cx="3.75" cy="3.75" r="3.75" fill="#2E3073"/>
<circle cx="26.25" cy="3.75" r="3.75" fill="#2E3073"/>
<circle cx="48.75" cy="3.75" r="3.75" fill="#2E3073"/>
<circle cx="71.25" cy="3.75" r="3.75" fill="#2E3073"/>
<circle cx="93.75" cy="3.75" r="3.75" fill="#2E3073"/>
<circle cx="116.25" cy="3.75" r="3.75" fill="#2E3073"/>
<circle cx="138.75" cy="3.75" r="3.75" fill="#2E3073"/>
<circle cx="161.25" cy="3.75" r="3.75" fill="#2E3073"/>
<circle cx="183.75" cy="3.75" r="3.75" fill="#2E3073"/>
<circle cx="206.25" cy="3.75" r="3.75" fill="#2E3073"/>
<circle cx="228.75" cy="3.75" r="3.75" fill="#2E3073"/>
<circle cx="251.25" cy="3.75" r="3.75" fill="#2E3073"/>
<circle cx="273.75" cy="3.75" r="3.75" fill="#2E3073"/>
<circle cx="296.25" cy="3.75" r="3.75" fill="#2E3073"/>
<circle cx="318.75" cy="3.75" r="3.75" fill="#2E3073"/>
<circle cx="341.25" cy="3.75" r="3.75" fill="#2E3073"/>
<circle cx="363.75" cy="3.75" r="3.75" fill="#2E3073"/>
<circle cx="386.25" cy="3.75" r="3.75" fill="#2E3073"/>
<circle cx="408.75" cy="3.75" r="3.75" fill="#2E3073"/>
<circle cx="431.25" cy="3.75" r="3.75" fill="#2E3073"/>
<circle cx="453.75" cy="3.75" r="3.75" fill="#2E3073"/>
<circle cx="476.25" cy="3.75" r="3.75" fill="#2E3073"/>
<circle cx="498.75" cy="3.75" r="3.75" fill="#2E3073"/>
<circle cx="521.25" cy="3.75" r="3.75" fill="#2E3073"/>
<g clip-path="url(#clip1_13_2441)">
<circle cx="3.75" cy="26.25" r="3.75" fill="#2E3073"/>
<circle cx="26.25" cy="26.25" r="3.75" fill="#2E3073"/>
<circle cx="48.75" cy="26.25" r="3.75" fill="#2E3073"/>
<circle cx="71.25" cy="26.25" r="3.75" fill="#2E3073"/>
<circle cx="93.75" cy="26.25" r="3.75" fill="#2E3073"/>
<circle cx="116.25" cy="26.25" r="3.75" fill="#2E3073"/>
<circle cx="138.75" cy="26.25" r="3.75" fill="#2E3073"/>
<circle cx="161.25" cy="26.25" r="3.75" fill="#2E3073"/>
<circle cx="183.75" cy="26.25" r="3.75" fill="#2E3073"/>
<circle cx="206.25" cy="26.25" r="3.75" fill="#2E3073"/>
<circle cx="228.75" cy="26.25" r="3.75" fill="#2E3073"/>
<circle cx="251.25" cy="26.25" r="3.75" fill="#2E3073"/>
<circle cx="273.75" cy="26.25" r="3.75" fill="#2E3073"/>
<circle cx="296.25" cy="26.25" r="3.75" fill="#2E3073"/>
<circle cx="318.75" cy="26.25" r="3.75" fill="#2E3073"/>
<circle cx="341.25" cy="26.25" r="3.75" fill="#2E3073"/>
<circle cx="363.75" cy="26.25" r="3.75" fill="#2E3073"/>
<circle cx="386.25" cy="26.25" r="3.75" fill="#2E3073"/>
<circle cx="408.75" cy="26.25" r="3.75" fill="#2E3073"/>
<circle cx="431.25" cy="26.25" r="3.75" fill="#2E3073"/>
<circle cx="453.75" cy="26.25" r="3.75" fill="#2E3073"/>
<circle cx="476.25" cy="26.25" r="3.75" fill="#2E3073"/>
<circle cx="498.75" cy="26.25" r="3.75" fill="#2E3073"/>
<circle cx="521.25" cy="26.25" r="3.75" fill="#2E3073"/>
</g>
<circle cx="3.75" cy="48.75" r="3.75" fill="#2E3073"/>
<circle cx="26.25" cy="48.75" r="3.75" fill="#2E3073"/>
<circle cx="48.75" cy="48.75" r="3.75" fill="#2E3073"/>
<circle cx="71.25" cy="48.75" r="3.75" fill="#2E3073"/>
<circle cx="93.75" cy="48.75" r="3.75" fill="#2E3073"/>
<circle cx="116.25" cy="48.75" r="3.75" fill="#2E3073"/>
<circle cx="138.75" cy="48.75" r="3.75" fill="#2E3073"/>
<circle cx="161.25" cy="48.75" r="3.75" fill="#2E3073"/>
<circle cx="183.75" cy="48.75" r="3.75" fill="#2E3073"/>
<circle cx="206.25" cy="48.75" r="3.75" fill="#2E3073"/>
<circle cx="228.75" cy="48.75" r="3.75" fill="#2E3073"/>
<circle cx="251.25" cy="48.75" r="3.75" fill="#2E3073"/>
<circle cx="273.75" cy="48.75" r="3.75" fill="#2E3073"/>
<circle cx="296.25" cy="48.75" r="3.75" fill="#2E3073"/>
<circle cx="318.75" cy="48.75" r="3.75" fill="#2E3073"/>
<circle cx="341.25" cy="48.75" r="3.75" fill="#2E3073"/>
<circle cx="363.75" cy="48.75" r="3.75" fill="#2E3073"/>
<circle cx="386.25" cy="48.75" r="3.75" fill="#2E3073"/>
<circle cx="408.75" cy="48.75" r="3.75" fill="#2E3073"/>
<circle cx="431.25" cy="48.75" r="3.75" fill="#2E3073"/>
<circle cx="453.75" cy="48.75" r="3.75" fill="#2E3073"/>
<circle cx="476.25" cy="48.75" r="3.75" fill="#2E3073"/>
<circle cx="498.75" cy="48.75" r="3.75" fill="#2E3073"/>
<circle cx="521.25" cy="48.75" r="3.75" fill="#2E3073"/>
<g clip-path="url(#clip2_13_2441)">
<circle cx="3.75" cy="71.25" r="3.75" fill="#2E3073"/>
<circle cx="26.25" cy="71.25" r="3.75" fill="#2E3073"/>
<circle cx="48.75" cy="71.25" r="3.75" fill="#2E3073"/>
<circle cx="71.25" cy="71.25" r="3.75" fill="#2E3073"/>
<circle cx="93.75" cy="71.25" r="3.75" fill="#2E3073"/>
<circle cx="116.25" cy="71.25" r="3.75" fill="#2E3073"/>
<circle cx="138.75" cy="71.25" r="3.75" fill="#2E3073"/>
<circle cx="161.25" cy="71.25" r="3.75" fill="#2E3073"/>
<circle cx="183.75" cy="71.25" r="3.75" fill="#2E3073"/>
<circle cx="206.25" cy="71.25" r="3.75" fill="#2E3073"/>
<circle cx="228.75" cy="71.25" r="3.75" fill="#2E3073"/>
<circle cx="251.25" cy="71.25" r="3.75" fill="#2E3073"/>
<circle cx="273.75" cy="71.25" r="3.75" fill="#2E3073"/>
<circle cx="296.25" cy="71.25" r="3.75" fill="#2E3073"/>
<circle cx="318.75" cy="71.25" r="3.75" fill="#2E3073"/>
<circle cx="341.25" cy="71.25" r="3.75" fill="#2E3073"/>
<circle cx="363.75" cy="71.25" r="3.75" fill="#2E3073"/>
<circle cx="386.25" cy="71.25" r="3.75" fill="#2E3073"/>
<circle cx="408.75" cy="71.25" r="3.75" fill="#2E3073"/>
<circle cx="431.25" cy="71.25" r="3.75" fill="#2E3073"/>
<circle cx="453.75" cy="71.25" r="3.75" fill="#2E3073"/>
<circle cx="476.25" cy="71.25" r="3.75" fill="#2E3073"/>
<circle cx="498.75" cy="71.25" r="3.75" fill="#2E3073"/>
<circle cx="521.25" cy="71.25" r="3.75" fill="#2E3073"/>
</g>
<circle cx="3.75" cy="93.75" r="3.75" fill="#2E3073"/>
<circle cx="26.25" cy="93.75" r="3.75" fill="#2E3073"/>
<circle cx="48.75" cy="93.75" r="3.75" fill="#2E3073"/>
<circle cx="71.25" cy="93.75" r="3.75" fill="#2E3073"/>
<circle cx="93.75" cy="93.75" r="3.75" fill="#2E3073"/>
<circle cx="116.25" cy="93.75" r="3.75" fill="#2E3073"/>
<circle cx="138.75" cy="93.75" r="3.75" fill="#2E3073"/>
<circle cx="161.25" cy="93.75" r="3.75" fill="#2E3073"/>
<circle cx="183.75" cy="93.75" r="3.75" fill="#2E3073"/>
<circle cx="206.25" cy="93.75" r="3.75" fill="#2E3073"/>
<circle cx="228.75" cy="93.75" r="3.75" fill="#2E3073"/>
<circle cx="251.25" cy="93.75" r="3.75" fill="#2E3073"/>
<circle cx="273.75" cy="93.75" r="3.75" fill="#2E3073"/>
<circle cx="296.25" cy="93.75" r="3.75" fill="#2E3073"/>
<circle cx="318.75" cy="93.75" r="3.75" fill="#2E3073"/>
<circle cx="341.25" cy="93.75" r="3.75" fill="#2E3073"/>
<circle cx="363.75" cy="93.75" r="3.75" fill="#2E3073"/>
<circle cx="386.25" cy="93.75" r="3.75" fill="#2E3073"/>
<circle cx="408.75" cy="93.75" r="3.75" fill="#2E3073"/>
<circle cx="431.25" cy="93.75" r="3.75" fill="#2E3073"/>
<circle cx="453.75" cy="93.75" r="3.75" fill="#2E3073"/>
<circle cx="476.25" cy="93.75" r="3.75" fill="#2E3073"/>
<circle cx="498.75" cy="93.75" r="3.75" fill="#2E3073"/>
<circle cx="521.25" cy="93.75" r="3.75" fill="#2E3073"/>
<g clip-path="url(#clip3_13_2441)">
<circle cx="3.75" cy="116.25" r="3.75" fill="#2E3073"/>
<circle cx="26.25" cy="116.25" r="3.75" fill="#2E3073"/>
<circle cx="48.75" cy="116.25" r="3.75" fill="#2E3073"/>
<circle cx="71.25" cy="116.25" r="3.75" fill="#2E3073"/>
<circle cx="93.75" cy="116.25" r="3.75" fill="#2E3073"/>
<circle cx="116.25" cy="116.25" r="3.75" fill="#2E3073"/>
<circle cx="138.75" cy="116.25" r="3.75" fill="#2E3073"/>
<circle cx="161.25" cy="116.25" r="3.75" fill="#2E3073"/>
<circle cx="183.75" cy="116.25" r="3.75" fill="#2E3073"/>
<circle cx="206.25" cy="116.25" r="3.75" fill="#2E3073"/>
<circle cx="228.75" cy="116.25" r="3.75" fill="#2E3073"/>
<circle cx="251.25" cy="116.25" r="3.75" fill="#2E3073"/>
<circle cx="273.75" cy="116.25" r="3.75" fill="#2E3073"/>
<circle cx="296.25" cy="116.25" r="3.75" fill="#2E3073"/>
<circle cx="318.75" cy="116.25" r="3.75" fill="#2E3073"/>
<circle cx="341.25" cy="116.25" r="3.75" fill="#2E3073"/>
<circle cx="363.75" cy="116.25" r="3.75" fill="#2E3073"/>
<circle cx="386.25" cy="116.25" r="3.75" fill="#2E3073"/>
<circle cx="408.75" cy="116.25" r="3.75" fill="#2E3073"/>
<circle cx="431.25" cy="116.25" r="3.75" fill="#2E3073"/>
<circle cx="453.75" cy="116.25" r="3.75" fill="#2E3073"/>
<circle cx="476.25" cy="116.25" r="3.75" fill="#2E3073"/>
<circle cx="498.75" cy="116.25" r="3.75" fill="#2E3073"/>
<circle cx="521.25" cy="116.25" r="3.75" fill="#2E3073"/>
</g>
<circle cx="3.75" cy="138.75" r="3.75" fill="#2E3073"/>
<circle cx="26.25" cy="138.75" r="3.75" fill="#2E3073"/>
<circle cx="48.75" cy="138.75" r="3.75" fill="#2E3073"/>
<circle cx="71.25" cy="138.75" r="3.75" fill="#2E3073"/>
<circle cx="93.75" cy="138.75" r="3.75" fill="#2E3073"/>
<circle cx="116.25" cy="138.75" r="3.75" fill="#2E3073"/>
<circle cx="138.75" cy="138.75" r="3.75" fill="#2E3073"/>
<circle cx="161.25" cy="138.75" r="3.75" fill="#2E3073"/>
<circle cx="183.75" cy="138.75" r="3.75" fill="#2E3073"/>
<circle cx="206.25" cy="138.75" r="3.75" fill="#2E3073"/>
<circle cx="228.75" cy="138.75" r="3.75" fill="#2E3073"/>
<circle cx="251.25" cy="138.75" r="3.75" fill="#2E3073"/>
<circle cx="273.75" cy="138.75" r="3.75" fill="#2E3073"/>
<circle cx="296.25" cy="138.75" r="3.75" fill="#2E3073"/>
<circle cx="318.75" cy="138.75" r="3.75" fill="#2E3073"/>
<circle cx="341.25" cy="138.75" r="3.75" fill="#2E3073"/>
<circle cx="363.75" cy="138.75" r="3.75" fill="#2E3073"/>
<circle cx="386.25" cy="138.75" r="3.75" fill="#2E3073"/>
<circle cx="408.75" cy="138.75" r="3.75" fill="#2E3073"/>
<circle cx="431.25" cy="138.75" r="3.75" fill="#2E3073"/>
<circle cx="453.75" cy="138.75" r="3.75" fill="#2E3073"/>
<circle cx="476.25" cy="138.75" r="3.75" fill="#2E3073"/>
<circle cx="498.75" cy="138.75" r="3.75" fill="#2E3073"/>
<circle cx="521.25" cy="138.75" r="3.75" fill="#2E3073"/>
<g clip-path="url(#clip4_13_2441)">
<circle cx="3.75" cy="161.25" r="3.75" fill="#2E3073"/>
<circle cx="26.25" cy="161.25" r="3.75" fill="#2E3073"/>
<circle cx="48.75" cy="161.25" r="3.75" fill="#2E3073"/>
<circle cx="71.25" cy="161.25" r="3.75" fill="#2E3073"/>
<circle cx="93.75" cy="161.25" r="3.75" fill="#2E3073"/>
<circle cx="116.25" cy="161.25" r="3.75" fill="#2E3073"/>
<circle cx="138.75" cy="161.25" r="3.75" fill="#2E3073"/>
<circle cx="161.25" cy="161.25" r="3.75" fill="#2E3073"/>
<circle cx="183.75" cy="161.25" r="3.75" fill="#2E3073"/>
<circle cx="206.25" cy="161.25" r="3.75" fill="#2E3073"/>
<circle cx="228.75" cy="161.25" r="3.75" fill="#2E3073"/>
<circle cx="251.25" cy="161.25" r="3.75" fill="#2E3073"/>
<circle cx="273.75" cy="161.25" r="3.75" fill="#2E3073"/>
<circle cx="296.25" cy="161.25" r="3.75" fill="#2E3073"/>
<circle cx="318.75" cy="161.25" r="3.75" fill="#2E3073"/>
<circle cx="341.25" cy="161.25" r="3.75" fill="#2E3073"/>
<circle cx="363.75" cy="161.25" r="3.75" fill="#2E3073"/>
<circle cx="386.25" cy="161.25" r="3.75" fill="#2E3073"/>
<circle cx="408.75" cy="161.25" r="3.75" fill="#2E3073"/>
<circle cx="431.25" cy="161.25" r="3.75" fill="#2E3073"/>
<circle cx="453.75" cy="161.25" r="3.75" fill="#2E3073"/>
<circle cx="476.25" cy="161.25" r="3.75" fill="#2E3073"/>
<circle cx="498.75" cy="161.25" r="3.75" fill="#2E3073"/>
<circle cx="521.25" cy="161.25" r="3.75" fill="#2E3073"/>
</g>
<circle cx="3.75" cy="183.75" r="3.75" fill="#2E3073"/>
<circle cx="26.25" cy="183.75" r="3.75" fill="#2E3073"/>
<circle cx="48.75" cy="183.75" r="3.75" fill="#2E3073"/>
<circle cx="71.25" cy="183.75" r="3.75" fill="#2E3073"/>
<circle cx="93.75" cy="183.75" r="3.75" fill="#2E3073"/>
<circle cx="116.25" cy="183.75" r="3.75" fill="#2E3073"/>
<circle cx="138.75" cy="183.75" r="3.75" fill="#2E3073"/>
<circle cx="161.25" cy="183.75" r="3.75" fill="#2E3073"/>
<circle cx="183.75" cy="183.75" r="3.75" fill="#2E3073"/>
<circle cx="206.25" cy="183.75" r="3.75" fill="#2E3073"/>
<circle cx="228.75" cy="183.75" r="3.75" fill="#2E3073"/>
<circle cx="251.25" cy="183.75" r="3.75" fill="#2E3073"/>
<circle cx="273.75" cy="183.75" r="3.75" fill="#2E3073"/>
<circle cx="296.25" cy="183.75" r="3.75" fill="#2E3073"/>
<circle cx="318.75" cy="183.75" r="3.75" fill="#2E3073"/>
<circle cx="341.25" cy="183.75" r="3.75" fill="#2E3073"/>
<circle cx="363.75" cy="183.75" r="3.75" fill="#2E3073"/>
<circle cx="386.25" cy="183.75" r="3.75" fill="#2E3073"/>
<circle cx="408.75" cy="183.75" r="3.75" fill="#2E3073"/>
<circle cx="431.25" cy="183.75" r="3.75" fill="#2E3073"/>
<circle cx="453.75" cy="183.75" r="3.75" fill="#2E3073"/>
<circle cx="476.25" cy="183.75" r="3.75" fill="#2E3073"/>
<circle cx="498.75" cy="183.75" r="3.75" fill="#2E3073"/>
<circle cx="521.25" cy="183.75" r="3.75" fill="#2E3073"/>
<g clip-path="url(#clip5_13_2441)">
<circle cx="3.75" cy="206.25" r="3.75" fill="#2E3073"/>
<circle cx="26.25" cy="206.25" r="3.75" fill="#2E3073"/>
<circle cx="48.75" cy="206.25" r="3.75" fill="#2E3073"/>
<circle cx="71.25" cy="206.25" r="3.75" fill="#2E3073"/>
<circle cx="93.75" cy="206.25" r="3.75" fill="#2E3073"/>
<circle cx="116.25" cy="206.25" r="3.75" fill="#2E3073"/>
<circle cx="138.75" cy="206.25" r="3.75" fill="#2E3073"/>
<circle cx="161.25" cy="206.25" r="3.75" fill="#2E3073"/>
<circle cx="183.75" cy="206.25" r="3.75" fill="#2E3073"/>
<circle cx="206.25" cy="206.25" r="3.75" fill="#2E3073"/>
<circle cx="228.75" cy="206.25" r="3.75" fill="#2E3073"/>
<circle cx="251.25" cy="206.25" r="3.75" fill="#2E3073"/>
<circle cx="273.75" cy="206.25" r="3.75" fill="#2E3073"/>
<circle cx="296.25" cy="206.25" r="3.75" fill="#2E3073"/>
<circle cx="318.75" cy="206.25" r="3.75" fill="#2E3073"/>
<circle cx="341.25" cy="206.25" r="3.75" fill="#2E3073"/>
<circle cx="363.75" cy="206.25" r="3.75" fill="#2E3073"/>
<circle cx="386.25" cy="206.25" r="3.75" fill="#2E3073"/>
<circle cx="408.75" cy="206.25" r="3.75" fill="#2E3073"/>
<circle cx="431.25" cy="206.25" r="3.75" fill="#2E3073"/>
<circle cx="453.75" cy="206.25" r="3.75" fill="#2E3073"/>
<circle cx="476.25" cy="206.25" r="3.75" fill="#2E3073"/>
<circle cx="498.75" cy="206.25" r="3.75" fill="#2E3073"/>
<circle cx="521.25" cy="206.25" r="3.75" fill="#2E3073"/>
</g>
<circle cx="3.75" cy="228.75" r="3.75" fill="#2E3073"/>
<circle cx="26.25" cy="228.75" r="3.75" fill="#2E3073"/>
<circle cx="48.75" cy="228.75" r="3.75" fill="#2E3073"/>
<circle cx="71.25" cy="228.75" r="3.75" fill="#2E3073"/>
<circle cx="93.75" cy="228.75" r="3.75" fill="#2E3073"/>
<circle cx="116.25" cy="228.75" r="3.75" fill="#2E3073"/>
<circle cx="138.75" cy="228.75" r="3.75" fill="#2E3073"/>
<circle cx="161.25" cy="228.75" r="3.75" fill="#2E3073"/>
<circle cx="183.75" cy="228.75" r="3.75" fill="#2E3073"/>
<circle cx="206.25" cy="228.75" r="3.75" fill="#2E3073"/>
<circle cx="228.75" cy="228.75" r="3.75" fill="#2E3073"/>
<circle cx="251.25" cy="228.75" r="3.75" fill="#2E3073"/>
<circle cx="273.75" cy="228.75" r="3.75" fill="#2E3073"/>
<circle cx="296.25" cy="228.75" r="3.75" fill="#2E3073"/>
<circle cx="318.75" cy="228.75" r="3.75" fill="#2E3073"/>
<circle cx="341.25" cy="228.75" r="3.75" fill="#2E3073"/>
<circle cx="363.75" cy="228.75" r="3.75" fill="#2E3073"/>
<circle cx="386.25" cy="228.75" r="3.75" fill="#2E3073"/>
<circle cx="408.75" cy="228.75" r="3.75" fill="#2E3073"/>
<circle cx="431.25" cy="228.75" r="3.75" fill="#2E3073"/>
<circle cx="453.75" cy="228.75" r="3.75" fill="#2E3073"/>
<circle cx="476.25" cy="228.75" r="3.75" fill="#2E3073"/>
<circle cx="498.75" cy="228.75" r="3.75" fill="#2E3073"/>
<circle cx="521.25" cy="228.75" r="3.75" fill="#2E3073"/>
<g clip-path="url(#clip6_13_2441)">
<circle cx="3.75" cy="251.25" r="3.75" fill="#2E3073"/>
<circle cx="26.25" cy="251.25" r="3.75" fill="#2E3073"/>
<circle cx="48.75" cy="251.25" r="3.75" fill="#2E3073"/>
<circle cx="71.25" cy="251.25" r="3.75" fill="#2E3073"/>
<circle cx="93.75" cy="251.25" r="3.75" fill="#2E3073"/>
<circle cx="116.25" cy="251.25" r="3.75" fill="#2E3073"/>
<circle cx="138.75" cy="251.25" r="3.75" fill="#2E3073"/>
<circle cx="161.25" cy="251.25" r="3.75" fill="#2E3073"/>
<circle cx="183.75" cy="251.25" r="3.75" fill="#2E3073"/>
<circle cx="206.25" cy="251.25" r="3.75" fill="#2E3073"/>
<circle cx="228.75" cy="251.25" r="3.75" fill="#2E3073"/>
<circle cx="251.25" cy="251.25" r="3.75" fill="#2E3073"/>
<circle cx="273.75" cy="251.25" r="3.75" fill="#2E3073"/>
<circle cx="296.25" cy="251.25" r="3.75" fill="#2E3073"/>
<circle cx="318.75" cy="251.25" r="3.75" fill="#2E3073"/>
<circle cx="341.25" cy="251.25" r="3.75" fill="#2E3073"/>
<circle cx="363.75" cy="251.25" r="3.75" fill="#2E3073"/>
<circle cx="386.25" cy="251.25" r="3.75" fill="#2E3073"/>
<circle cx="408.75" cy="251.25" r="3.75" fill="#2E3073"/>
<circle cx="431.25" cy="251.25" r="3.75" fill="#2E3073"/>
<circle cx="453.75" cy="251.25" r="3.75" fill="#2E3073"/>
<circle cx="476.25" cy="251.25" r="3.75" fill="#2E3073"/>
<circle cx="498.75" cy="251.25" r="3.75" fill="#2E3073"/>
<circle cx="521.25" cy="251.25" r="3.75" fill="#2E3073"/>
</g>
<circle cx="3.75" cy="273.75" r="3.75" fill="#2E3073"/>
<circle cx="26.25" cy="273.75" r="3.75" fill="#2E3073"/>
<circle cx="48.75" cy="273.75" r="3.75" fill="#2E3073"/>
<circle cx="71.25" cy="273.75" r="3.75" fill="#2E3073"/>
<circle cx="93.75" cy="273.75" r="3.75" fill="#2E3073"/>
<circle cx="116.25" cy="273.75" r="3.75" fill="#2E3073"/>
<circle cx="138.75" cy="273.75" r="3.75" fill="#2E3073"/>
<circle cx="161.25" cy="273.75" r="3.75" fill="#2E3073"/>
<circle cx="183.75" cy="273.75" r="3.75" fill="#2E3073"/>
<circle cx="206.25" cy="273.75" r="3.75" fill="#2E3073"/>
<circle cx="228.75" cy="273.75" r="3.75" fill="#2E3073"/>
<circle cx="251.25" cy="273.75" r="3.75" fill="#2E3073"/>
<circle cx="273.75" cy="273.75" r="3.75" fill="#2E3073"/>
<circle cx="296.25" cy="273.75" r="3.75" fill="#2E3073"/>
<circle cx="318.75" cy="273.75" r="3.75" fill="#2E3073"/>
<circle cx="341.25" cy="273.75" r="3.75" fill="#2E3073"/>
<circle cx="363.75" cy="273.75" r="3.75" fill="#2E3073"/>
<circle cx="386.25" cy="273.75" r="3.75" fill="#2E3073"/>
<circle cx="408.75" cy="273.75" r="3.75" fill="#2E3073"/>
<circle cx="431.25" cy="273.75" r="3.75" fill="#2E3073"/>
<circle cx="453.75" cy="273.75" r="3.75" fill="#2E3073"/>
<circle cx="476.25" cy="273.75" r="3.75" fill="#2E3073"/>
<circle cx="498.75" cy="273.75" r="3.75" fill="#2E3073"/>
<circle cx="521.25" cy="273.75" r="3.75" fill="#2E3073"/>
<g clip-path="url(#clip7_13_2441)">
<circle cx="3.75" cy="296.25" r="3.75" fill="#2E3073"/>
<circle cx="26.25" cy="296.25" r="3.75" fill="#2E3073"/>
<circle cx="48.75" cy="296.25" r="3.75" fill="#2E3073"/>
<circle cx="71.25" cy="296.25" r="3.75" fill="#2E3073"/>
<circle cx="93.75" cy="296.25" r="3.75" fill="#2E3073"/>
<circle cx="116.25" cy="296.25" r="3.75" fill="#2E3073"/>
<circle cx="138.75" cy="296.25" r="3.75" fill="#2E3073"/>
<circle cx="161.25" cy="296.25" r="3.75" fill="#2E3073"/>
<circle cx="183.75" cy="296.25" r="3.75" fill="#2E3073"/>
<circle cx="206.25" cy="296.25" r="3.75" fill="#2E3073"/>
<circle cx="228.75" cy="296.25" r="3.75" fill="#2E3073"/>
<circle cx="251.25" cy="296.25" r="3.75" fill="#2E3073"/>
<circle cx="273.75" cy="296.25" r="3.75" fill="#2E3073"/>
<circle cx="296.25" cy="296.25" r="3.75" fill="#2E3073"/>
<circle cx="318.75" cy="296.25" r="3.75" fill="#2E3073"/>
<circle cx="341.25" cy="296.25" r="3.75" fill="#2E3073"/>
<circle cx="363.75" cy="296.25" r="3.75" fill="#2E3073"/>
<circle cx="386.25" cy="296.25" r="3.75" fill="#2E3073"/>
<circle cx="408.75" cy="296.25" r="3.75" fill="#2E3073"/>
<circle cx="431.25" cy="296.25" r="3.75" fill="#2E3073"/>
<circle cx="453.75" cy="296.25" r="3.75" fill="#2E3073"/>
<circle cx="476.25" cy="296.25" r="3.75" fill="#2E3073"/>
<circle cx="498.75" cy="296.25" r="3.75" fill="#2E3073"/>
<circle cx="521.25" cy="296.25" r="3.75" fill="#2E3073"/>
</g>
<circle cx="3.75" cy="318.75" r="3.75" fill="#2E3073"/>
<circle cx="26.25" cy="318.75" r="3.75" fill="#2E3073"/>
<circle cx="48.75" cy="318.75" r="3.75" fill="#2E3073"/>
<circle cx="71.25" cy="318.75" r="3.75" fill="#2E3073"/>
<circle cx="93.75" cy="318.75" r="3.75" fill="#2E3073"/>
<circle cx="116.25" cy="318.75" r="3.75" fill="#2E3073"/>
<circle cx="138.75" cy="318.75" r="3.75" fill="#2E3073"/>
<circle cx="161.25" cy="318.75" r="3.75" fill="#2E3073"/>
<circle cx="183.75" cy="318.75" r="3.75" fill="#2E3073"/>
<circle cx="206.25" cy="318.75" r="3.75" fill="#2E3073"/>
<circle cx="228.75" cy="318.75" r="3.75" fill="#2E3073"/>
<circle cx="251.25" cy="318.75" r="3.75" fill="#2E3073"/>
<circle cx="273.75" cy="318.75" r="3.75" fill="#2E3073"/>
<circle cx="296.25" cy="318.75" r="3.75" fill="#2E3073"/>
<circle cx="318.75" cy="318.75" r="3.75" fill="#2E3073"/>
<circle cx="341.25" cy="318.75" r="3.75" fill="#2E3073"/>
<circle cx="363.75" cy="318.75" r="3.75" fill="#2E3073"/>
<circle cx="386.25" cy="318.75" r="3.75" fill="#2E3073"/>
<circle cx="408.75" cy="318.75" r="3.75" fill="#2E3073"/>
<circle cx="431.25" cy="318.75" r="3.75" fill="#2E3073"/>
<circle cx="453.75" cy="318.75" r="3.75" fill="#2E3073"/>
<circle cx="476.25" cy="318.75" r="3.75" fill="#2E3073"/>
<circle cx="498.75" cy="318.75" r="3.75" fill="#2E3073"/>
<circle cx="521.25" cy="318.75" r="3.75" fill="#2E3073"/>
<g clip-path="url(#clip8_13_2441)">
<circle cx="3.75" cy="341.25" r="3.75" fill="#2E3073"/>
<circle cx="26.25" cy="341.25" r="3.75" fill="#2E3073"/>
<circle cx="48.75" cy="341.25" r="3.75" fill="#2E3073"/>
<circle cx="71.25" cy="341.25" r="3.75" fill="#2E3073"/>
<circle cx="93.75" cy="341.25" r="3.75" fill="#2E3073"/>
<circle cx="116.25" cy="341.25" r="3.75" fill="#2E3073"/>
<circle cx="138.75" cy="341.25" r="3.75" fill="#2E3073"/>
<circle cx="161.25" cy="341.25" r="3.75" fill="#2E3073"/>
<circle cx="183.75" cy="341.25" r="3.75" fill="#2E3073"/>
<circle cx="206.25" cy="341.25" r="3.75" fill="#2E3073"/>
<circle cx="228.75" cy="341.25" r="3.75" fill="#2E3073"/>
<circle cx="251.25" cy="341.25" r="3.75" fill="#2E3073"/>
<circle cx="273.75" cy="341.25" r="3.75" fill="#2E3073"/>
<circle cx="296.25" cy="341.25" r="3.75" fill="#2E3073"/>
<circle cx="318.75" cy="341.25" r="3.75" fill="#2E3073"/>
<circle cx="341.25" cy="341.25" r="3.75" fill="#2E3073"/>
<circle cx="363.75" cy="341.25" r="3.75" fill="#2E3073"/>
<circle cx="386.25" cy="341.25" r="3.75" fill="#2E3073"/>
<circle cx="408.75" cy="341.25" r="3.75" fill="#2E3073"/>
<circle cx="431.25" cy="341.25" r="3.75" fill="#2E3073"/>
<circle cx="453.75" cy="341.25" r="3.75" fill="#2E3073"/>
<circle cx="476.25" cy="341.25" r="3.75" fill="#2E3073"/>
<circle cx="498.75" cy="341.25" r="3.75" fill="#2E3073"/>
<circle cx="521.25" cy="341.25" r="3.75" fill="#2E3073"/>
</g>
<circle cx="3.75" cy="363.75" r="3.75" fill="#2E3073"/>
<circle cx="26.25" cy="363.75" r="3.75" fill="#2E3073"/>
<circle cx="48.75" cy="363.75" r="3.75" fill="#2E3073"/>
<circle cx="71.25" cy="363.75" r="3.75" fill="#2E3073"/>
<circle cx="93.75" cy="363.75" r="3.75" fill="#2E3073"/>
<circle cx="116.25" cy="363.75" r="3.75" fill="#2E3073"/>
<circle cx="138.75" cy="363.75" r="3.75" fill="#2E3073"/>
<circle cx="161.25" cy="363.75" r="3.75" fill="#2E3073"/>
<circle cx="183.75" cy="363.75" r="3.75" fill="#2E3073"/>
<circle cx="206.25" cy="363.75" r="3.75" fill="#2E3073"/>
<circle cx="228.75" cy="363.75" r="3.75" fill="#2E3073"/>
<circle cx="251.25" cy="363.75" r="3.75" fill="#2E3073"/>
<circle cx="273.75" cy="363.75" r="3.75" fill="#2E3073"/>
<circle cx="296.25" cy="363.75" r="3.75" fill="#2E3073"/>
<circle cx="318.75" cy="363.75" r="3.75" fill="#2E3073"/>
<circle cx="341.25" cy="363.75" r="3.75" fill="#2E3073"/>
<circle cx="363.75" cy="363.75" r="3.75" fill="#2E3073"/>
<circle cx="386.25" cy="363.75" r="3.75" fill="#2E3073"/>
<circle cx="408.75" cy="363.75" r="3.75" fill="#2E3073"/>
<circle cx="431.25" cy="363.75" r="3.75" fill="#2E3073"/>
<circle cx="453.75" cy="363.75" r="3.75" fill="#2E3073"/>
<circle cx="476.25" cy="363.75" r="3.75" fill="#2E3073"/>
<circle cx="498.75" cy="363.75" r="3.75" fill="#2E3073"/>
<circle cx="521.25" cy="363.75" r="3.75" fill="#2E3073"/>
<g clip-path="url(#clip9_13_2441)">
<circle cx="3.75" cy="386.25" r="3.75" fill="#2E3073"/>
<circle cx="26.25" cy="386.25" r="3.75" fill="#2E3073"/>
<circle cx="48.75" cy="386.25" r="3.75" fill="#2E3073"/>
<circle cx="71.25" cy="386.25" r="3.75" fill="#2E3073"/>
<circle cx="93.75" cy="386.25" r="3.75" fill="#2E3073"/>
<circle cx="116.25" cy="386.25" r="3.75" fill="#2E3073"/>
<circle cx="138.75" cy="386.25" r="3.75" fill="#2E3073"/>
<circle cx="161.25" cy="386.25" r="3.75" fill="#2E3073"/>
<circle cx="183.75" cy="386.25" r="3.75" fill="#2E3073"/>
<circle cx="206.25" cy="386.25" r="3.75" fill="#2E3073"/>
<circle cx="228.75" cy="386.25" r="3.75" fill="#2E3073"/>
<circle cx="251.25" cy="386.25" r="3.75" fill="#2E3073"/>
<circle cx="273.75" cy="386.25" r="3.75" fill="#2E3073"/>
<circle cx="296.25" cy="386.25" r="3.75" fill="#2E3073"/>
<circle cx="318.75" cy="386.25" r="3.75" fill="#2E3073"/>
<circle cx="341.25" cy="386.25" r="3.75" fill="#2E3073"/>
<circle cx="363.75" cy="386.25" r="3.75" fill="#2E3073"/>
<circle cx="386.25" cy="386.25" r="3.75" fill="#2E3073"/>
<circle cx="408.75" cy="386.25" r="3.75" fill="#2E3073"/>
<circle cx="431.25" cy="386.25" r="3.75" fill="#2E3073"/>
<circle cx="453.75" cy="386.25" r="3.75" fill="#2E3073"/>
<circle cx="476.25" cy="386.25" r="3.75" fill="#2E3073"/>
<circle cx="498.75" cy="386.25" r="3.75" fill="#2E3073"/>
<circle cx="521.25" cy="386.25" r="3.75" fill="#2E3073"/>
</g>
<circle cx="3.75" cy="408.75" r="3.75" fill="#2E3073"/>
<circle cx="26.25" cy="408.75" r="3.75" fill="#2E3073"/>
<circle cx="48.75" cy="408.75" r="3.75" fill="#2E3073"/>
<circle cx="71.25" cy="408.75" r="3.75" fill="#2E3073"/>
<circle cx="93.75" cy="408.75" r="3.75" fill="#2E3073"/>
<circle cx="116.25" cy="408.75" r="3.75" fill="#2E3073"/>
<circle cx="138.75" cy="408.75" r="3.75" fill="#2E3073"/>
<circle cx="161.25" cy="408.75" r="3.75" fill="#2E3073"/>
<circle cx="183.75" cy="408.75" r="3.75" fill="#2E3073"/>
<circle cx="206.25" cy="408.75" r="3.75" fill="#2E3073"/>
<circle cx="228.75" cy="408.75" r="3.75" fill="#2E3073"/>
<circle cx="251.25" cy="408.75" r="3.75" fill="#2E3073"/>
<circle cx="273.75" cy="408.75" r="3.75" fill="#2E3073"/>
<circle cx="296.25" cy="408.75" r="3.75" fill="#2E3073"/>
<circle cx="318.75" cy="408.75" r="3.75" fill="#2E3073"/>
<circle cx="341.25" cy="408.75" r="3.75" fill="#2E3073"/>
<circle cx="363.75" cy="408.75" r="3.75" fill="#2E3073"/>
<circle cx="386.25" cy="408.75" r="3.75" fill="#2E3073"/>
<circle cx="408.75" cy="408.75" r="3.75" fill="#2E3073"/>
<circle cx="431.25" cy="408.75" r="3.75" fill="#2E3073"/>
<circle cx="453.75" cy="408.75" r="3.75" fill="#2E3073"/>
<circle cx="476.25" cy="408.75" r="3.75" fill="#2E3073"/>
<circle cx="498.75" cy="408.75" r="3.75" fill="#2E3073"/>
<circle cx="521.25" cy="408.75" r="3.75" fill="#2E3073"/>
<g clip-path="url(#clip10_13_2441)">
<circle cx="3.75" cy="431.25" r="3.75" fill="#2E3073"/>
<circle cx="26.25" cy="431.25" r="3.75" fill="#2E3073"/>
<circle cx="48.75" cy="431.25" r="3.75" fill="#2E3073"/>
<circle cx="71.25" cy="431.25" r="3.75" fill="#2E3073"/>
<circle cx="93.75" cy="431.25" r="3.75" fill="#2E3073"/>
<circle cx="116.25" cy="431.25" r="3.75" fill="#2E3073"/>
<circle cx="138.75" cy="431.25" r="3.75" fill="#2E3073"/>
<circle cx="161.25" cy="431.25" r="3.75" fill="#2E3073"/>
<circle cx="183.75" cy="431.25" r="3.75" fill="#2E3073"/>
<circle cx="206.25" cy="431.25" r="3.75" fill="#2E3073"/>
<circle cx="228.75" cy="431.25" r="3.75" fill="#2E3073"/>
<circle cx="251.25" cy="431.25" r="3.75" fill="#2E3073"/>
<circle cx="273.75" cy="431.25" r="3.75" fill="#2E3073"/>
<circle cx="296.25" cy="431.25" r="3.75" fill="#2E3073"/>
<circle cx="318.75" cy="431.25" r="3.75" fill="#2E3073"/>
<circle cx="341.25" cy="431.25" r="3.75" fill="#2E3073"/>
<circle cx="363.75" cy="431.25" r="3.75" fill="#2E3073"/>
<circle cx="386.25" cy="431.25" r="3.75" fill="#2E3073"/>
<circle cx="408.75" cy="431.25" r="3.75" fill="#2E3073"/>
<circle cx="431.25" cy="431.25" r="3.75" fill="#2E3073"/>
<circle cx="453.75" cy="431.25" r="3.75" fill="#2E3073"/>
<circle cx="476.25" cy="431.25" r="3.75" fill="#2E3073"/>
<circle cx="498.75" cy="431.25" r="3.75" fill="#2E3073"/>
<circle cx="521.25" cy="431.25" r="3.75" fill="#2E3073"/>
</g>
<circle cx="3.75" cy="453.75" r="3.75" fill="#2E3073"/>
<circle cx="26.25" cy="453.75" r="3.75" fill="#2E3073"/>
<circle cx="48.75" cy="453.75" r="3.75" fill="#2E3073"/>
<circle cx="71.25" cy="453.75" r="3.75" fill="#2E3073"/>
<circle cx="93.75" cy="453.75" r="3.75" fill="#2E3073"/>
<circle cx="116.25" cy="453.75" r="3.75" fill="#2E3073"/>
<circle cx="138.75" cy="453.75" r="3.75" fill="#2E3073"/>
<circle cx="161.25" cy="453.75" r="3.75" fill="#2E3073"/>
<circle cx="183.75" cy="453.75" r="3.75" fill="#2E3073"/>
<circle cx="206.25" cy="453.75" r="3.75" fill="#2E3073"/>
<circle cx="228.75" cy="453.75" r="3.75" fill="#2E3073"/>
<circle cx="251.25" cy="453.75" r="3.75" fill="#2E3073"/>
<circle cx="273.75" cy="453.75" r="3.75" fill="#2E3073"/>
<circle cx="296.25" cy="453.75" r="3.75" fill="#2E3073"/>
<circle cx="318.75" cy="453.75" r="3.75" fill="#2E3073"/>
<circle cx="341.25" cy="453.75" r="3.75" fill="#2E3073"/>
<circle cx="363.75" cy="453.75" r="3.75" fill="#2E3073"/>
<circle cx="386.25" cy="453.75" r="3.75" fill="#2E3073"/>
<circle cx="408.75" cy="453.75" r="3.75" fill="#2E3073"/>
<circle cx="431.25" cy="453.75" r="3.75" fill="#2E3073"/>
<circle cx="453.75" cy="453.75" r="3.75" fill="#2E3073"/>
<circle cx="476.25" cy="453.75" r="3.75" fill="#2E3073"/>
<circle cx="498.75" cy="453.75" r="3.75" fill="#2E3073"/>
<circle cx="521.25" cy="453.75" r="3.75" fill="#2E3073"/>
<g clip-path="url(#clip11_13_2441)">
<circle cx="3.75" cy="476.25" r="3.75" fill="#2E3073"/>
<circle cx="26.25" cy="476.25" r="3.75" fill="#2E3073"/>
<circle cx="48.75" cy="476.25" r="3.75" fill="#2E3073"/>
<circle cx="71.25" cy="476.25" r="3.75" fill="#2E3073"/>
<circle cx="93.75" cy="476.25" r="3.75" fill="#2E3073"/>
<circle cx="116.25" cy="476.25" r="3.75" fill="#2E3073"/>
<circle cx="138.75" cy="476.25" r="3.75" fill="#2E3073"/>
<circle cx="161.25" cy="476.25" r="3.75" fill="#2E3073"/>
<circle cx="183.75" cy="476.25" r="3.75" fill="#2E3073"/>
<circle cx="206.25" cy="476.25" r="3.75" fill="#2E3073"/>
<circle cx="228.75" cy="476.25" r="3.75" fill="#2E3073"/>
<circle cx="251.25" cy="476.25" r="3.75" fill="#2E3073"/>
<circle cx="273.75" cy="476.25" r="3.75" fill="#2E3073"/>
<circle cx="296.25" cy="476.25" r="3.75" fill="#2E3073"/>
<circle cx="318.75" cy="476.25" r="3.75" fill="#2E3073"/>
<circle cx="341.25" cy="476.25" r="3.75" fill="#2E3073"/>
<circle cx="363.75" cy="476.25" r="3.75" fill="#2E3073"/>
<circle cx="386.25" cy="476.25" r="3.75" fill="#2E3073"/>
<circle cx="408.75" cy="476.25" r="3.75" fill="#2E3073"/>
<circle cx="431.25" cy="476.25" r="3.75" fill="#2E3073"/>
<circle cx="453.75" cy="476.25" r="3.75" fill="#2E3073"/>
<circle cx="476.25" cy="476.25" r="3.75" fill="#2E3073"/>
<circle cx="498.75" cy="476.25" r="3.75" fill="#2E3073"/>
<circle cx="521.25" cy="476.25" r="3.75" fill="#2E3073"/>
</g>
<circle cx="3.75" cy="498.75" r="3.75" fill="#2E3073"/>
<circle cx="26.25" cy="498.75" r="3.75" fill="#2E3073"/>
<circle cx="48.75" cy="498.75" r="3.75" fill="#2E3073"/>
<circle cx="71.25" cy="498.75" r="3.75" fill="#2E3073"/>
<circle cx="93.75" cy="498.75" r="3.75" fill="#2E3073"/>
<circle cx="116.25" cy="498.75" r="3.75" fill="#2E3073"/>
<circle cx="138.75" cy="498.75" r="3.75" fill="#2E3073"/>
<circle cx="161.25" cy="498.75" r="3.75" fill="#2E3073"/>
<circle cx="183.75" cy="498.75" r="3.75" fill="#2E3073"/>
<circle cx="206.25" cy="498.75" r="3.75" fill="#2E3073"/>
<circle cx="228.75" cy="498.75" r="3.75" fill="#2E3073"/>
<circle cx="251.25" cy="498.75" r="3.75" fill="#2E3073"/>
<circle cx="273.75" cy="498.75" r="3.75" fill="#2E3073"/>
<circle cx="296.25" cy="498.75" r="3.75" fill="#2E3073"/>
<circle cx="318.75" cy="498.75" r="3.75" fill="#2E3073"/>
<circle cx="341.25" cy="498.75" r="3.75" fill="#2E3073"/>
<circle cx="363.75" cy="498.75" r="3.75" fill="#2E3073"/>
<circle cx="386.25" cy="498.75" r="3.75" fill="#2E3073"/>
<circle cx="408.75" cy="498.75" r="3.75" fill="#2E3073"/>
<circle cx="431.25" cy="498.75" r="3.75" fill="#2E3073"/>
<circle cx="453.75" cy="498.75" r="3.75" fill="#2E3073"/>
<circle cx="476.25" cy="498.75" r="3.75" fill="#2E3073"/>
<circle cx="498.75" cy="498.75" r="3.75" fill="#2E3073"/>
<circle cx="521.25" cy="498.75" r="3.75" fill="#2E3073"/>
<g clip-path="url(#clip12_13_2441)">
<circle cx="3.75" cy="521.25" r="3.75" fill="#2E3073"/>
<circle cx="26.25" cy="521.25" r="3.75" fill="#2E3073"/>
<circle cx="48.75" cy="521.25" r="3.75" fill="#2E3073"/>
<circle cx="71.25" cy="521.25" r="3.75" fill="#2E3073"/>
<circle cx="93.75" cy="521.25" r="3.75" fill="#2E3073"/>
<circle cx="116.25" cy="521.25" r="3.75" fill="#2E3073"/>
<circle cx="138.75" cy="521.25" r="3.75" fill="#2E3073"/>
<circle cx="161.25" cy="521.25" r="3.75" fill="#2E3073"/>
<circle cx="183.75" cy="521.25" r="3.75" fill="#2E3073"/>
<circle cx="206.25" cy="521.25" r="3.75" fill="#2E3073"/>
<circle cx="228.75" cy="521.25" r="3.75" fill="#2E3073"/>
<circle cx="251.25" cy="521.25" r="3.75" fill="#2E3073"/>
<circle cx="273.75" cy="521.25" r="3.75" fill="#2E3073"/>
<circle cx="296.25" cy="521.25" r="3.75" fill="#2E3073"/>
<circle cx="318.75" cy="521.25" r="3.75" fill="#2E3073"/>
<circle cx="341.25" cy="521.25" r="3.75" fill="#2E3073"/>
<circle cx="363.75" cy="521.25" r="3.75" fill="#2E3073"/>
<circle cx="386.25" cy="521.25" r="3.75" fill="#2E3073"/>
<circle cx="408.75" cy="521.25" r="3.75" fill="#2E3073"/>
<circle cx="431.25" cy="521.25" r="3.75" fill="#2E3073"/>
<circle cx="453.75" cy="521.25" r="3.75" fill="#2E3073"/>
<circle cx="476.25" cy="521.25" r="3.75" fill="#2E3073"/>
<circle cx="498.75" cy="521.25" r="3.75" fill="#2E3073"/>
<circle cx="521.25" cy="521.25" r="3.75" fill="#2E3073"/>
</g>
</g>
<defs>
<clipPath id="clip0_13_2441">
<rect width="528" height="528" fill="white"/>
</clipPath>
<clipPath id="clip1_13_2441">
<rect width="528" height="22.5" fill="white" transform="translate(0 22.5)"/>
</clipPath>
<clipPath id="clip2_13_2441">
<rect width="528" height="22.5" fill="white" transform="translate(0 67.5)"/>
</clipPath>
<clipPath id="clip3_13_2441">
<rect width="528" height="22.5" fill="white" transform="translate(0 112.5)"/>
</clipPath>
<clipPath id="clip4_13_2441">
<rect width="528" height="22.5" fill="white" transform="translate(0 157.5)"/>
</clipPath>
<clipPath id="clip5_13_2441">
<rect width="528" height="22.5" fill="white" transform="translate(0 202.5)"/>
</clipPath>
<clipPath id="clip6_13_2441">
<rect width="528" height="22.5" fill="white" transform="translate(0 247.5)"/>
</clipPath>
<clipPath id="clip7_13_2441">
<rect width="528" height="22.5" fill="white" transform="translate(0 292.5)"/>
</clipPath>
<clipPath id="clip8_13_2441">
<rect width="528" height="22.5" fill="white" transform="translate(0 337.5)"/>
</clipPath>
<clipPath id="clip9_13_2441">
<rect width="528" height="22.5" fill="white" transform="translate(0 382.5)"/>
</clipPath>
<clipPath id="clip10_13_2441">
<rect width="528" height="22.5" fill="white" transform="translate(0 427.5)"/>
</clipPath>
<clipPath id="clip11_13_2441">
<rect width="528" height="22.5" fill="white" transform="translate(0 472.5)"/>
</clipPath>
<clipPath id="clip12_13_2441">
<rect width="528" height="22.5" fill="white" transform="translate(0 517.5)"/>
</clipPath>
</defs>
</svg>
