<svg width="18" height="34" viewBox="0 0 18 34" fill="none" xmlns="http://www.w3.org/2000/svg">
<path fill-rule="evenodd" clip-rule="evenodd" d="M13.2498 29.75C13.2498 30.8772 12.802 31.9582 12.005 32.7552C11.208 33.5522 10.127 34 8.9998 34C7.87263 34 6.79162 33.5522 5.99459 32.7552C5.19756 31.9582 4.7498 30.8772 4.7498 29.75C4.7498 28.6228 5.19756 27.5418 5.99459 26.7448C6.79162 25.9478 7.87263 25.5 8.9998 25.5C10.127 25.5 11.208 25.9478 12.005 26.7448C12.802 27.5418 13.2498 28.6228 13.2498 29.75ZM17.0323 10.9629C16.7335 10.6644 16.3284 10.4968 15.906 10.4968C15.4837 10.4968 15.0786 10.6644 14.7798 10.9629L10.5935 15.1491V1.59375C10.5935 1.17106 10.4256 0.765685 10.1267 0.466799C9.82786 0.167912 9.42248 0 8.9998 0C8.57711 0 8.17173 0.167912 7.87284 0.466799C7.57396 0.765685 7.40605 1.17106 7.40605 1.59375V15.1491L3.2198 10.9629C2.91767 10.6814 2.51808 10.5281 2.10519 10.5354C1.6923 10.5427 1.29835 10.7099 1.00635 11.0019C0.714347 11.2939 0.547084 11.6879 0.539799 12.1008C0.532514 12.5137 0.685775 12.9133 0.967295 13.2154L7.87355 20.1216L8.9998 21.25L10.126 20.1238L17.0323 13.2175C17.1804 13.0695 17.2979 12.8938 17.378 12.7003C17.4582 12.5069 17.4995 12.2996 17.4995 12.0902C17.4995 11.8808 17.4582 11.6735 17.378 11.48C17.2979 11.2866 17.1804 11.1109 17.0323 10.9629Z" fill="black"/>
</svg>
